<mxfile host="Electron" modified="2023-08-09T11:16:55.045Z" agent="Mozilla/5.0 (Windows NT 10.0; Win64; x64) AppleWebKit/537.36 (KHTML, like Gecko) draw.io/21.6.5 Chrome/114.0.5735.243 Electron/25.3.1 Safari/537.36" etag="s_wwSLelBhY1iVHdhVdX" version="21.6.5" type="device">
  <diagram name="第 1 页" id="VTUkEO_UQAFqfw7q6bWO">
    <mxGraphModel dx="1418" dy="-349" grid="0" gridSize="10" guides="1" tooltips="1" connect="1" arrows="1" fold="1" page="1" pageScale="1" pageWidth="827" pageHeight="1169" math="0" shadow="0">
      <root>
        <mxCell id="0" />
        <mxCell id="1" parent="0" />
        <mxCell id="MNF7uUWkkhBH7P5a3Kn4-1" value="" style="rounded=0;whiteSpace=wrap;html=1;fillColor=#f5f5f5;fontColor=#333333;strokeColor=#666666;" parent="1" vertex="1">
          <mxGeometry x="100" y="1675" width="510" height="79" as="geometry" />
        </mxCell>
        <mxCell id="MNF7uUWkkhBH7P5a3Kn4-2" value="" style="rounded=0;whiteSpace=wrap;html=1;fillColor=#f5f5f5;fontColor=#333333;strokeColor=#666666;" parent="1" vertex="1">
          <mxGeometry x="100" y="1204" width="510" height="330" as="geometry" />
        </mxCell>
        <mxCell id="MNF7uUWkkhBH7P5a3Kn4-3" value="" style="rounded=0;whiteSpace=wrap;html=1;fillColor=#f5f5f5;strokeColor=#666666;fontColor=#333333;" parent="1" vertex="1">
          <mxGeometry x="100" y="1534" width="510" height="141" as="geometry" />
        </mxCell>
        <mxCell id="MNF7uUWkkhBH7P5a3Kn4-4" value="NAND Flash" style="rounded=0;whiteSpace=wrap;html=1;fillColor=#f9f7ed;strokeColor=#36393d;" parent="1" vertex="1">
          <mxGeometry x="110" y="1724" width="490" height="20" as="geometry" />
        </mxCell>
        <mxCell id="MNF7uUWkkhBH7P5a3Kn4-5" value="FTL(flash translation layer)" style="rounded=0;whiteSpace=wrap;html=1;fillColor=#f9f7ed;strokeColor=#36393d;" parent="1" vertex="1">
          <mxGeometry x="110" y="1684" width="490" height="30" as="geometry" />
        </mxCell>
        <mxCell id="MNF7uUWkkhBH7P5a3Kn4-6" value="Linux" style="text;html=1;strokeColor=none;fillColor=none;align=center;verticalAlign=middle;whiteSpace=wrap;rounded=0;fontSize=14;labelBorderColor=none;" parent="1" vertex="1">
          <mxGeometry x="630" y="1594" width="65" height="30" as="geometry" />
        </mxCell>
        <mxCell id="MNF7uUWkkhBH7P5a3Kn4-7" value="进程管理" style="rounded=0;whiteSpace=wrap;html=1;fillColor=#f9f7ed;strokeColor=#36393d;" parent="1" vertex="1">
          <mxGeometry x="110" y="1634" width="80" height="30" as="geometry" />
        </mxCell>
        <mxCell id="MNF7uUWkkhBH7P5a3Kn4-8" value="内存管理" style="rounded=0;whiteSpace=wrap;html=1;fillColor=#f9f7ed;strokeColor=#36393d;" parent="1" vertex="1">
          <mxGeometry x="200" y="1634" width="80" height="30" as="geometry" />
        </mxCell>
        <mxCell id="MNF7uUWkkhBH7P5a3Kn4-9" value="页高速缓存" style="rounded=0;whiteSpace=wrap;html=1;fillColor=#f9f7ed;strokeColor=#36393d;" parent="1" vertex="1">
          <mxGeometry x="290" y="1634" width="91" height="30" as="geometry" />
        </mxCell>
        <mxCell id="MNF7uUWkkhBH7P5a3Kn4-10" value="...." style="text;html=1;strokeColor=none;fillColor=none;align=center;verticalAlign=middle;whiteSpace=wrap;rounded=0;" parent="1" vertex="1">
          <mxGeometry x="510" y="1634" width="60" height="30" as="geometry" />
        </mxCell>
        <mxCell id="MNF7uUWkkhBH7P5a3Kn4-11" value="F2FS文件系统" style="rounded=0;whiteSpace=wrap;html=1;fillColor=#f9f7ed;strokeColor=#36393d;" parent="1" vertex="1">
          <mxGeometry x="110" y="1584" width="490" height="40" as="geometry" />
        </mxCell>
        <mxCell id="MNF7uUWkkhBH7P5a3Kn4-12" value="VFS" style="rounded=0;whiteSpace=wrap;html=1;fillColor=#f9f7ed;strokeColor=#36393d;" parent="1" vertex="1">
          <mxGeometry x="110" y="1544" width="490" height="30" as="geometry" />
        </mxCell>
        <mxCell id="MNF7uUWkkhBH7P5a3Kn4-13" value="块设备抽象" style="text;html=1;align=center;verticalAlign=middle;rounded=0;fontSize=16;fontStyle=1" parent="1" vertex="1">
          <mxGeometry x="20" y="1654" width="70" height="30" as="geometry" />
        </mxCell>
        <mxCell id="MNF7uUWkkhBH7P5a3Kn4-14" value="" style="endArrow=none;html=1;rounded=0;exitX=0;exitY=0;exitDx=0;exitDy=0;strokeWidth=3;entryX=1;entryY=0;entryDx=0;entryDy=0;fillColor=#dae8fc;strokeColor=#6c8ebf;fontColor=#fff2cc;" parent="1" target="MNF7uUWkkhBH7P5a3Kn4-3" edge="1">
          <mxGeometry width="50" height="50" relative="1" as="geometry">
            <mxPoint x="100" y="1534" as="sourcePoint" />
            <mxPoint x="500" y="1534" as="targetPoint" />
          </mxGeometry>
        </mxCell>
        <mxCell id="MNF7uUWkkhBH7P5a3Kn4-15" value="&lt;font style=&quot;font-size: 16px;&quot;&gt;&lt;b&gt;系统调用&lt;/b&gt;&lt;/font&gt;" style="text;html=1;strokeColor=none;fillColor=none;align=center;verticalAlign=middle;whiteSpace=wrap;rounded=0;" parent="1" vertex="1">
          <mxGeometry x="25" y="1514" width="70" height="30" as="geometry" />
        </mxCell>
        <mxCell id="MNF7uUWkkhBH7P5a3Kn4-16" value="dump" style="rounded=0;whiteSpace=wrap;html=1;fillColor=#f5f5f5;fontColor=#333333;strokeColor=#666666;" parent="1" vertex="1">
          <mxGeometry x="150" y="1214" width="40" height="310" as="geometry" />
        </mxCell>
        <mxCell id="MNF7uUWkkhBH7P5a3Kn4-17" value="mkfs" style="rounded=0;whiteSpace=wrap;html=1;fillColor=#f5f5f5;fontColor=#333333;strokeColor=#666666;" parent="1" vertex="1">
          <mxGeometry x="105" y="1214" width="35" height="310" as="geometry" />
        </mxCell>
        <mxCell id="MNF7uUWkkhBH7P5a3Kn4-18" value="" style="rounded=0;whiteSpace=wrap;html=1;fillColor=#fff2cc;strokeColor=#d6b656;" parent="1" vertex="1">
          <mxGeometry x="210" y="1214" width="390" height="310" as="geometry" />
        </mxCell>
        <mxCell id="MNF7uUWkkhBH7P5a3Kn4-19" value="...." style="text;html=1;strokeColor=none;fillColor=none;align=center;verticalAlign=middle;whiteSpace=wrap;rounded=0;" parent="1" vertex="1">
          <mxGeometry x="170" y="1434" width="60" height="30" as="geometry" />
        </mxCell>
        <mxCell id="MNF7uUWkkhBH7P5a3Kn4-20" value="fsck" style="text;html=1;strokeColor=none;fillColor=none;align=center;verticalAlign=middle;whiteSpace=wrap;rounded=0;" parent="1" vertex="1">
          <mxGeometry x="180" y="1194" width="60" height="30" as="geometry" />
        </mxCell>
        <mxCell id="MNF7uUWkkhBH7P5a3Kn4-21" value="F2FS-tools" style="text;html=1;strokeColor=none;fillColor=none;align=center;verticalAlign=middle;whiteSpace=wrap;rounded=0;fontSize=14;labelBackgroundColor=default;" parent="1" vertex="1">
          <mxGeometry x="635" y="1359" width="75" height="30" as="geometry" />
        </mxCell>
        <mxCell id="MNF7uUWkkhBH7P5a3Kn4-22" style="edgeStyle=orthogonalEdgeStyle;rounded=0;orthogonalLoop=1;jettySize=auto;html=1;exitX=0.5;exitY=1;exitDx=0;exitDy=0;entryX=0.5;entryY=0;entryDx=0;entryDy=0;" parent="1" source="MNF7uUWkkhBH7P5a3Kn4-23" target="MNF7uUWkkhBH7P5a3Kn4-26" edge="1">
          <mxGeometry relative="1" as="geometry" />
        </mxCell>
        <mxCell id="MNF7uUWkkhBH7P5a3Kn4-23" value="&lt;font color=&quot;#ff3399&quot;&gt;&lt;b&gt;任务管理&lt;/b&gt;&lt;/font&gt;" style="rounded=0;whiteSpace=wrap;html=1;fillColor=#66FF66;" parent="1" vertex="1">
          <mxGeometry x="290" y="1394" width="238" height="30" as="geometry" />
        </mxCell>
        <mxCell id="MNF7uUWkkhBH7P5a3Kn4-24" style="rounded=0;orthogonalLoop=1;jettySize=auto;html=1;entryX=1;entryY=0.5;entryDx=0;entryDy=0;targetPerimeterSpacing=0;startArrow=classic;startFill=1;exitX=0;exitY=0.5;exitDx=0;exitDy=0;" parent="1" source="MNF7uUWkkhBH7P5a3Kn4-28" target="MNF7uUWkkhBH7P5a3Kn4-26" edge="1">
          <mxGeometry relative="1" as="geometry">
            <mxPoint x="630" y="1614" as="sourcePoint" />
            <Array as="points" />
          </mxGeometry>
        </mxCell>
        <mxCell id="MNF7uUWkkhBH7P5a3Kn4-25" style="edgeStyle=orthogonalEdgeStyle;rounded=0;orthogonalLoop=1;jettySize=auto;html=1;exitX=0;exitY=0.5;exitDx=0;exitDy=0;entryX=1;entryY=0.5;entryDx=0;entryDy=0;" parent="1" source="MNF7uUWkkhBH7P5a3Kn4-26" target="MNF7uUWkkhBH7P5a3Kn4-38" edge="1">
          <mxGeometry relative="1" as="geometry" />
        </mxCell>
        <mxCell id="MNF7uUWkkhBH7P5a3Kn4-26" value="&lt;font color=&quot;#ff3399&quot;&gt;&lt;b&gt;工作线程池&lt;/b&gt;&lt;/font&gt;" style="rounded=0;whiteSpace=wrap;html=1;fillColor=#66FF66;" parent="1" vertex="1">
          <mxGeometry x="367" y="1444" width="66" height="70" as="geometry" />
        </mxCell>
        <mxCell id="MNF7uUWkkhBH7P5a3Kn4-27" value="&lt;font color=&quot;#b266ff&quot;&gt;&lt;b&gt;资源动态调整&lt;/b&gt;&lt;/font&gt;" style="rounded=0;whiteSpace=wrap;html=1;fillColor=#cdeb8b;strokeColor=#36393d;" parent="1" vertex="1">
          <mxGeometry x="550" y="1224" width="40" height="290" as="geometry" />
        </mxCell>
        <mxCell id="MNF7uUWkkhBH7P5a3Kn4-28" value="&lt;font color=&quot;#ff3399&quot;&gt;&lt;b&gt;空闲线程池&lt;/b&gt;&lt;/font&gt;" style="rounded=0;whiteSpace=wrap;html=1;fillColor=#66FF66;" parent="1" vertex="1">
          <mxGeometry x="460" y="1444" width="68" height="70" as="geometry" />
        </mxCell>
        <mxCell id="MNF7uUWkkhBH7P5a3Kn4-29" value="&lt;font color=&quot;#ff3399&quot;&gt;&lt;b&gt;共享变量访问控制&lt;/b&gt;&lt;/font&gt;" style="rounded=0;whiteSpace=wrap;html=1;fillColor=#66FF66;strokeColor=#36393d;" parent="1" vertex="1">
          <mxGeometry x="215" y="1224" width="45" height="290" as="geometry" />
        </mxCell>
        <mxCell id="MNF7uUWkkhBH7P5a3Kn4-30" value="原FSCK(检查和修复)" style="rounded=0;whiteSpace=wrap;html=1;fillColor=#cce5ff;strokeColor=#36393d;" parent="1" vertex="1">
          <mxGeometry x="291" y="1224" width="236" height="60" as="geometry" />
        </mxCell>
        <mxCell id="MNF7uUWkkhBH7P5a3Kn4-31" style="edgeStyle=orthogonalEdgeStyle;rounded=0;orthogonalLoop=1;jettySize=auto;html=1;exitX=0.5;exitY=1;exitDx=0;exitDy=0;" parent="1" source="MNF7uUWkkhBH7P5a3Kn4-33" target="MNF7uUWkkhBH7P5a3Kn4-35" edge="1">
          <mxGeometry relative="1" as="geometry" />
        </mxCell>
        <mxCell id="MNF7uUWkkhBH7P5a3Kn4-32" style="edgeStyle=orthogonalEdgeStyle;rounded=0;orthogonalLoop=1;jettySize=auto;html=1;exitX=0.5;exitY=1;exitDx=0;exitDy=0;entryX=0.5;entryY=0;entryDx=0;entryDy=0;" parent="1" source="MNF7uUWkkhBH7P5a3Kn4-33" target="MNF7uUWkkhBH7P5a3Kn4-35" edge="1">
          <mxGeometry relative="1" as="geometry" />
        </mxCell>
        <mxCell id="MNF7uUWkkhBH7P5a3Kn4-33" value="&lt;font color=&quot;#ff3399&quot;&gt;&lt;b&gt;任务抓取&lt;/b&gt;&lt;/font&gt;" style="rounded=0;whiteSpace=wrap;html=1;fillColor=#66FF66;strokeColor=#36393d;gradientColor=none;" parent="1" vertex="1">
          <mxGeometry x="290" y="1314" width="120" height="30" as="geometry" />
        </mxCell>
        <mxCell id="MNF7uUWkkhBH7P5a3Kn4-34" style="edgeStyle=orthogonalEdgeStyle;rounded=0;orthogonalLoop=1;jettySize=auto;html=1;exitX=0.5;exitY=1;exitDx=0;exitDy=0;entryX=0.25;entryY=0;entryDx=0;entryDy=0;" parent="1" source="MNF7uUWkkhBH7P5a3Kn4-35" target="MNF7uUWkkhBH7P5a3Kn4-23" edge="1">
          <mxGeometry relative="1" as="geometry" />
        </mxCell>
        <mxCell id="MNF7uUWkkhBH7P5a3Kn4-35" value="&lt;font color=&quot;#ff3399&quot;&gt;&lt;b&gt;一致性保证模块&lt;/b&gt;&lt;/font&gt;" style="rounded=0;whiteSpace=wrap;html=1;fillColor=#cdeb8b;strokeColor=#36393d;" parent="1" vertex="1">
          <mxGeometry x="291" y="1359" width="120" height="20" as="geometry" />
        </mxCell>
        <mxCell id="MNF7uUWkkhBH7P5a3Kn4-36" style="edgeStyle=orthogonalEdgeStyle;rounded=0;orthogonalLoop=1;jettySize=auto;html=1;exitX=0.5;exitY=1;exitDx=0;exitDy=0;entryX=0.75;entryY=0;entryDx=0;entryDy=0;" parent="1" edge="1">
          <mxGeometry relative="1" as="geometry">
            <mxPoint x="481" y="1374" as="sourcePoint" />
            <mxPoint x="475.5" y="1394" as="targetPoint" />
          </mxGeometry>
        </mxCell>
        <mxCell id="MNF7uUWkkhBH7P5a3Kn4-37" value="&lt;b style=&quot;&quot;&gt;&lt;font color=&quot;#9ac7bf&quot;&gt;性能优化&lt;/font&gt;&lt;/b&gt;" style="rounded=0;whiteSpace=wrap;html=1;fillColor=#ffcc99;strokeColor=#36393d;" parent="1" vertex="1">
          <mxGeometry x="421" y="1314" width="106" height="60" as="geometry" />
        </mxCell>
        <mxCell id="MNF7uUWkkhBH7P5a3Kn4-38" value="&lt;b style=&quot;&quot;&gt;&lt;font color=&quot;#ff3399&quot;&gt;缓存&lt;/font&gt;&lt;/b&gt;" style="rounded=0;whiteSpace=wrap;html=1;fillColor=#ffcc99;strokeColor=#36393d;" parent="1" vertex="1">
          <mxGeometry x="290" y="1444" width="60" height="70" as="geometry" />
        </mxCell>
        <mxCell id="MNF7uUWkkhBH7P5a3Kn4-39" value="" style="endArrow=classic;startArrow=classic;html=1;rounded=0;exitX=0.5;exitY=0;exitDx=0;exitDy=0;" parent="1" source="MNF7uUWkkhBH7P5a3Kn4-33" edge="1">
          <mxGeometry width="50" height="50" relative="1" as="geometry">
            <mxPoint x="300" y="1344" as="sourcePoint" />
            <mxPoint x="350" y="1284" as="targetPoint" />
          </mxGeometry>
        </mxCell>
        <mxCell id="MNF7uUWkkhBH7P5a3Kn4-40" value="" style="endArrow=classic;startArrow=classic;html=1;rounded=0;exitX=0.774;exitY=1.017;exitDx=0;exitDy=0;entryX=0.5;entryY=0;entryDx=0;entryDy=0;exitPerimeter=0;" parent="1" source="MNF7uUWkkhBH7P5a3Kn4-30" target="MNF7uUWkkhBH7P5a3Kn4-37" edge="1">
          <mxGeometry width="50" height="50" relative="1" as="geometry">
            <mxPoint x="360" y="1334" as="sourcePoint" />
            <mxPoint x="360" y="1304" as="targetPoint" />
          </mxGeometry>
        </mxCell>
        <mxCell id="MNF7uUWkkhBH7P5a3Kn4-41" value="" style="endArrow=classic;html=1;rounded=0;entryX=1;entryY=0.5;entryDx=0;entryDy=0;exitX=0.05;exitY=0.883;exitDx=0;exitDy=0;exitPerimeter=0;" parent="1" source="MNF7uUWkkhBH7P5a3Kn4-27" target="MNF7uUWkkhBH7P5a3Kn4-28" edge="1">
          <mxGeometry width="50" height="50" relative="1" as="geometry">
            <mxPoint x="550" y="1474" as="sourcePoint" />
            <mxPoint x="600" y="1424" as="targetPoint" />
          </mxGeometry>
        </mxCell>
        <mxCell id="MNF7uUWkkhBH7P5a3Kn4-42" value="" style="endArrow=classic;startArrow=classic;html=1;rounded=0;" parent="1" source="MNF7uUWkkhBH7P5a3Kn4-27" edge="1">
          <mxGeometry width="50" height="50" relative="1" as="geometry">
            <mxPoint x="484" y="1295" as="sourcePoint" />
            <mxPoint x="570" y="1544" as="targetPoint" />
          </mxGeometry>
        </mxCell>
        <mxCell id="MNF7uUWkkhBH7P5a3Kn4-43" value="" style="endArrow=classic;startArrow=classic;html=1;rounded=0;" parent="1" edge="1">
          <mxGeometry width="50" height="50" relative="1" as="geometry">
            <mxPoint x="323.66" y="1514" as="sourcePoint" />
            <mxPoint x="324" y="1544" as="targetPoint" />
          </mxGeometry>
        </mxCell>
        <mxCell id="MNF7uUWkkhBH7P5a3Kn4-44" value="设备驱动" style="rounded=0;whiteSpace=wrap;html=1;fillColor=#f9f7ed;strokeColor=#36393d;" parent="1" vertex="1">
          <mxGeometry x="394.5" y="1634" width="91" height="30" as="geometry" />
        </mxCell>
        <mxCell id="MNF7uUWkkhBH7P5a3Kn4-45" value="" style="endArrow=classic;startArrow=classic;html=1;rounded=0;exitX=1;exitY=0.5;exitDx=0;exitDy=0;" parent="1" source="MNF7uUWkkhBH7P5a3Kn4-29" target="MNF7uUWkkhBH7P5a3Kn4-35" edge="1">
          <mxGeometry width="50" height="50" relative="1" as="geometry">
            <mxPoint x="260" y="1374" as="sourcePoint" />
            <mxPoint x="310" y="1324" as="targetPoint" />
          </mxGeometry>
        </mxCell>
        <mxCell id="MNF7uUWkkhBH7P5a3Kn4-46" value="" style="endArrow=none;html=1;rounded=0;exitX=0;exitY=0;exitDx=0;exitDy=0;strokeWidth=3;entryX=1;entryY=0;entryDx=0;entryDy=0;fillColor=#dae8fc;strokeColor=#6c8ebf;" parent="1" edge="1">
          <mxGeometry width="50" height="50" relative="1" as="geometry">
            <mxPoint x="100" y="1674.17" as="sourcePoint" />
            <mxPoint x="610" y="1674.17" as="targetPoint" />
          </mxGeometry>
        </mxCell>
        <mxCell id="MNF7uUWkkhBH7P5a3Kn4-47" value="NAND设备" style="text;html=1;strokeColor=none;fillColor=none;align=center;verticalAlign=middle;whiteSpace=wrap;rounded=0;fontSize=14;labelBorderColor=none;" parent="1" vertex="1">
          <mxGeometry x="640" y="1699.5" width="70" height="30" as="geometry" />
        </mxCell>
        <mxCell id="MNF7uUWkkhBH7P5a3Kn4-48" value="系统原有" style="rounded=0;whiteSpace=wrap;html=1;fillColor=#cce5ff;labelBorderColor=none;strokeColor=none;" parent="1" vertex="1">
          <mxGeometry x="32.5" y="1204" width="60" height="30" as="geometry" />
        </mxCell>
        <mxCell id="MNF7uUWkkhBH7P5a3Kn4-49" value="已完成" style="rounded=0;whiteSpace=wrap;html=1;fillColor=#66ff66;labelBorderColor=none;strokeColor=none;" parent="1" vertex="1">
          <mxGeometry x="32.5" y="1239" width="60" height="30" as="geometry" />
        </mxCell>
        <mxCell id="MNF7uUWkkhBH7P5a3Kn4-50" value="待完善" style="rounded=0;whiteSpace=wrap;html=1;fillColor=#cdeb8b;labelBorderColor=none;strokeColor=none;" parent="1" vertex="1">
          <mxGeometry x="32.5" y="1284" width="60" height="30" as="geometry" />
        </mxCell>
        <mxCell id="MNF7uUWkkhBH7P5a3Kn4-51" value="待实现" style="rounded=0;whiteSpace=wrap;html=1;fillColor=#ffcc99;labelBorderColor=none;strokeColor=none;" parent="1" vertex="1">
          <mxGeometry x="32.5" y="1324" width="60" height="30" as="geometry" />
        </mxCell>
        <mxCell id="MNF7uUWkkhBH7P5a3Kn4-52" value="&lt;font color=&quot;#ff3399&quot;&gt;&lt;b&gt;目标1&lt;/b&gt;&lt;/font&gt;" style="text;html=1;strokeColor=none;fillColor=none;align=center;verticalAlign=middle;whiteSpace=wrap;rounded=0;" parent="1" vertex="1">
          <mxGeometry x="33" y="1364" width="60" height="30" as="geometry" />
        </mxCell>
        <mxCell id="MNF7uUWkkhBH7P5a3Kn4-53" value="&lt;b style=&quot;&quot;&gt;&lt;font color=&quot;#b266ff&quot;&gt;目标2&lt;/font&gt;&lt;/b&gt;" style="text;html=1;strokeColor=none;fillColor=none;align=center;verticalAlign=middle;whiteSpace=wrap;rounded=0;" parent="1" vertex="1">
          <mxGeometry x="33" y="1389" width="60" height="30" as="geometry" />
        </mxCell>
        <mxCell id="MNF7uUWkkhBH7P5a3Kn4-54" value="&lt;b style=&quot;&quot;&gt;&lt;font color=&quot;#9ac7bf&quot;&gt;目标3&lt;/font&gt;&lt;/b&gt;" style="text;html=1;strokeColor=none;fillColor=none;align=center;verticalAlign=middle;whiteSpace=wrap;rounded=0;" parent="1" vertex="1">
          <mxGeometry x="32.5" y="1413" width="60" height="30" as="geometry" />
        </mxCell>
        <mxCell id="N-qbP-aM9RmU7g5ffJJw-2" value="" style="rounded=0;whiteSpace=wrap;html=1;fillColor=#f5f5f5;fontColor=#333333;strokeColor=#666666;" vertex="1" parent="1">
          <mxGeometry x="90" y="3211" width="510" height="159" as="geometry" />
        </mxCell>
        <mxCell id="N-qbP-aM9RmU7g5ffJJw-3" value="" style="rounded=0;whiteSpace=wrap;html=1;fillColor=#f5f5f5;fontColor=#333333;strokeColor=#666666;" vertex="1" parent="1">
          <mxGeometry x="90" y="2740" width="510" height="330" as="geometry" />
        </mxCell>
        <mxCell id="N-qbP-aM9RmU7g5ffJJw-4" value="" style="rounded=0;whiteSpace=wrap;html=1;fillColor=#f5f5f5;strokeColor=#666666;fontColor=#333333;" vertex="1" parent="1">
          <mxGeometry x="90" y="3070" width="510" height="220" as="geometry" />
        </mxCell>
        <mxCell id="N-qbP-aM9RmU7g5ffJJw-5" value="NAND Flash" style="rounded=0;whiteSpace=wrap;html=1;" vertex="1" parent="1">
          <mxGeometry x="100" y="3341" width="490" height="20" as="geometry" />
        </mxCell>
        <mxCell id="N-qbP-aM9RmU7g5ffJJw-6" value="FTL(flash translation layer)" style="rounded=0;whiteSpace=wrap;html=1;" vertex="1" parent="1">
          <mxGeometry x="100" y="3302" width="490" height="30" as="geometry" />
        </mxCell>
        <mxCell id="N-qbP-aM9RmU7g5ffJJw-7" value="Linux" style="text;html=1;strokeColor=none;fillColor=none;align=center;verticalAlign=middle;whiteSpace=wrap;rounded=0;fontSize=14;labelBorderColor=none;" vertex="1" parent="1">
          <mxGeometry x="600" y="3211" width="65" height="30" as="geometry" />
        </mxCell>
        <mxCell id="N-qbP-aM9RmU7g5ffJJw-8" value="进程管理" style="rounded=0;whiteSpace=wrap;html=1;" vertex="1" parent="1">
          <mxGeometry x="100" y="3250" width="80" height="30" as="geometry" />
        </mxCell>
        <mxCell id="N-qbP-aM9RmU7g5ffJJw-9" value="内存管理" style="rounded=0;whiteSpace=wrap;html=1;" vertex="1" parent="1">
          <mxGeometry x="190" y="3250" width="80" height="30" as="geometry" />
        </mxCell>
        <mxCell id="N-qbP-aM9RmU7g5ffJJw-10" value="页高速缓存" style="rounded=0;whiteSpace=wrap;html=1;" vertex="1" parent="1">
          <mxGeometry x="280" y="3250" width="91" height="30" as="geometry" />
        </mxCell>
        <mxCell id="N-qbP-aM9RmU7g5ffJJw-11" value="...." style="text;html=1;strokeColor=none;fillColor=none;align=center;verticalAlign=middle;whiteSpace=wrap;rounded=0;" vertex="1" parent="1">
          <mxGeometry x="500" y="3245" width="60" height="30" as="geometry" />
        </mxCell>
        <mxCell id="N-qbP-aM9RmU7g5ffJJw-12" value="" style="rounded=0;whiteSpace=wrap;html=1;" vertex="1" parent="1">
          <mxGeometry x="100" y="3120" width="490" height="120" as="geometry" />
        </mxCell>
        <mxCell id="N-qbP-aM9RmU7g5ffJJw-13" value="VFS" style="rounded=0;whiteSpace=wrap;html=1;" vertex="1" parent="1">
          <mxGeometry x="100" y="3080" width="490" height="30" as="geometry" />
        </mxCell>
        <mxCell id="N-qbP-aM9RmU7g5ffJJw-14" value="块设备抽象" style="text;html=1;align=center;verticalAlign=middle;rounded=0;fontSize=16;fontStyle=1" vertex="1" parent="1">
          <mxGeometry x="10" y="3275.5" width="70" height="30" as="geometry" />
        </mxCell>
        <mxCell id="N-qbP-aM9RmU7g5ffJJw-15" value="" style="endArrow=none;html=1;rounded=0;exitX=0;exitY=0;exitDx=0;exitDy=0;strokeWidth=3;entryX=1;entryY=0;entryDx=0;entryDy=0;fillColor=#dae8fc;strokeColor=#6c8ebf;fontColor=#fff2cc;" edge="1" parent="1" target="N-qbP-aM9RmU7g5ffJJw-4">
          <mxGeometry width="50" height="50" relative="1" as="geometry">
            <mxPoint x="90" y="3070" as="sourcePoint" />
            <mxPoint x="490" y="3070" as="targetPoint" />
          </mxGeometry>
        </mxCell>
        <mxCell id="N-qbP-aM9RmU7g5ffJJw-16" value="&lt;font style=&quot;font-size: 16px;&quot;&gt;&lt;b&gt;系统调用&lt;/b&gt;&lt;/font&gt;" style="text;html=1;strokeColor=none;fillColor=none;align=center;verticalAlign=middle;whiteSpace=wrap;rounded=0;" vertex="1" parent="1">
          <mxGeometry x="17.5" y="3050" width="70" height="30" as="geometry" />
        </mxCell>
        <mxCell id="N-qbP-aM9RmU7g5ffJJw-17" value="dump" style="rounded=0;whiteSpace=wrap;html=1;" vertex="1" parent="1">
          <mxGeometry x="140" y="2750" width="40" height="310" as="geometry" />
        </mxCell>
        <mxCell id="N-qbP-aM9RmU7g5ffJJw-18" value="mkfs" style="rounded=0;whiteSpace=wrap;html=1;" vertex="1" parent="1">
          <mxGeometry x="95" y="2750" width="35" height="310" as="geometry" />
        </mxCell>
        <mxCell id="N-qbP-aM9RmU7g5ffJJw-19" value="" style="rounded=0;whiteSpace=wrap;html=1;" vertex="1" parent="1">
          <mxGeometry x="200" y="2750" width="390" height="310" as="geometry" />
        </mxCell>
        <mxCell id="N-qbP-aM9RmU7g5ffJJw-20" value="...." style="text;html=1;strokeColor=none;fillColor=none;align=center;verticalAlign=middle;whiteSpace=wrap;rounded=0;" vertex="1" parent="1">
          <mxGeometry x="160" y="2970" width="60" height="30" as="geometry" />
        </mxCell>
        <mxCell id="N-qbP-aM9RmU7g5ffJJw-21" value="fsck" style="text;html=1;strokeColor=none;fillColor=none;align=center;verticalAlign=middle;whiteSpace=wrap;rounded=0;" vertex="1" parent="1">
          <mxGeometry x="170" y="2730" width="60" height="30" as="geometry" />
        </mxCell>
        <mxCell id="N-qbP-aM9RmU7g5ffJJw-22" value="F2FS-tools" style="text;html=1;strokeColor=none;fillColor=none;align=center;verticalAlign=middle;whiteSpace=wrap;rounded=0;fontSize=14;labelBackgroundColor=default;" vertex="1" parent="1">
          <mxGeometry x="605" y="2800" width="75" height="30" as="geometry" />
        </mxCell>
        <mxCell id="N-qbP-aM9RmU7g5ffJJw-23" style="edgeStyle=orthogonalEdgeStyle;rounded=0;orthogonalLoop=1;jettySize=auto;html=1;exitX=0.5;exitY=1;exitDx=0;exitDy=0;entryX=0.5;entryY=0;entryDx=0;entryDy=0;" edge="1" parent="1" source="N-qbP-aM9RmU7g5ffJJw-24" target="N-qbP-aM9RmU7g5ffJJw-27">
          <mxGeometry relative="1" as="geometry" />
        </mxCell>
        <mxCell id="N-qbP-aM9RmU7g5ffJJw-24" value="任务管理" style="rounded=0;whiteSpace=wrap;html=1;fillColor=#66ff66;strokeColor=#36393d;" vertex="1" parent="1">
          <mxGeometry x="280" y="2930" width="238" height="30" as="geometry" />
        </mxCell>
        <mxCell id="N-qbP-aM9RmU7g5ffJJw-25" style="rounded=0;orthogonalLoop=1;jettySize=auto;html=1;entryX=1;entryY=0.5;entryDx=0;entryDy=0;targetPerimeterSpacing=0;startArrow=classic;startFill=1;exitX=0;exitY=0.5;exitDx=0;exitDy=0;" edge="1" parent="1" source="N-qbP-aM9RmU7g5ffJJw-29" target="N-qbP-aM9RmU7g5ffJJw-27">
          <mxGeometry relative="1" as="geometry">
            <mxPoint x="620" y="3150" as="sourcePoint" />
            <Array as="points" />
          </mxGeometry>
        </mxCell>
        <mxCell id="N-qbP-aM9RmU7g5ffJJw-26" style="edgeStyle=orthogonalEdgeStyle;rounded=0;orthogonalLoop=1;jettySize=auto;html=1;exitX=0;exitY=0.5;exitDx=0;exitDy=0;entryX=1;entryY=0.5;entryDx=0;entryDy=0;" edge="1" parent="1" source="N-qbP-aM9RmU7g5ffJJw-27" target="N-qbP-aM9RmU7g5ffJJw-39">
          <mxGeometry relative="1" as="geometry" />
        </mxCell>
        <mxCell id="N-qbP-aM9RmU7g5ffJJw-27" value="工作线程池" style="rounded=0;whiteSpace=wrap;html=1;fillColor=#66ff66;strokeColor=#36393d;" vertex="1" parent="1">
          <mxGeometry x="357" y="2980" width="66" height="70" as="geometry" />
        </mxCell>
        <mxCell id="N-qbP-aM9RmU7g5ffJJw-28" value="资源动态调整" style="rounded=0;whiteSpace=wrap;html=1;fillColor=#66ff66;strokeColor=#36393d;" vertex="1" parent="1">
          <mxGeometry x="540" y="2930" width="40" height="120" as="geometry" />
        </mxCell>
        <mxCell id="N-qbP-aM9RmU7g5ffJJw-29" value="空闲线程池" style="rounded=0;whiteSpace=wrap;html=1;fillColor=#66ff66;strokeColor=#36393d;" vertex="1" parent="1">
          <mxGeometry x="450" y="2980" width="68" height="70" as="geometry" />
        </mxCell>
        <mxCell id="N-qbP-aM9RmU7g5ffJJw-30" value="共享变量访问控制" style="rounded=0;whiteSpace=wrap;html=1;fillColor=#66ff66;strokeColor=default;" vertex="1" parent="1">
          <mxGeometry x="205" y="2760" width="45" height="290" as="geometry" />
        </mxCell>
        <mxCell id="N-qbP-aM9RmU7g5ffJJw-79" style="edgeStyle=orthogonalEdgeStyle;rounded=0;orthogonalLoop=1;jettySize=auto;html=1;exitX=0.774;exitY=0.97;exitDx=0;exitDy=0;entryX=0.43;entryY=0.021;entryDx=0;entryDy=0;entryPerimeter=0;exitPerimeter=0;" edge="1" parent="1" source="N-qbP-aM9RmU7g5ffJJw-31" target="N-qbP-aM9RmU7g5ffJJw-38">
          <mxGeometry relative="1" as="geometry" />
        </mxCell>
        <mxCell id="N-qbP-aM9RmU7g5ffJJw-31" value="原FSCK(检查和修复)" style="rounded=0;whiteSpace=wrap;html=1;fillColor=#ffcc99;strokeColor=default;" vertex="1" parent="1">
          <mxGeometry x="281" y="2760" width="299" height="60" as="geometry" />
        </mxCell>
        <mxCell id="N-qbP-aM9RmU7g5ffJJw-81" style="edgeStyle=orthogonalEdgeStyle;rounded=0;orthogonalLoop=1;jettySize=auto;html=1;exitX=0.5;exitY=1;exitDx=0;exitDy=0;entryX=0.47;entryY=0.124;entryDx=0;entryDy=0;entryPerimeter=0;" edge="1" parent="1" source="N-qbP-aM9RmU7g5ffJJw-34" target="N-qbP-aM9RmU7g5ffJJw-36">
          <mxGeometry relative="1" as="geometry" />
        </mxCell>
        <mxCell id="N-qbP-aM9RmU7g5ffJJw-34" value="任务抓取" style="rounded=0;whiteSpace=wrap;html=1;fillColor=#66ff66;strokeColor=#36393d;" vertex="1" parent="1">
          <mxGeometry x="280" y="2850" width="160" height="30" as="geometry" />
        </mxCell>
        <mxCell id="N-qbP-aM9RmU7g5ffJJw-35" style="edgeStyle=orthogonalEdgeStyle;rounded=0;orthogonalLoop=1;jettySize=auto;html=1;exitX=0.5;exitY=1;exitDx=0;exitDy=0;entryX=0.25;entryY=0;entryDx=0;entryDy=0;" edge="1" parent="1">
          <mxGeometry relative="1" as="geometry">
            <mxPoint x="377.5" y="2915" as="sourcePoint" />
            <mxPoint x="356.5000000000002" y="2930" as="targetPoint" />
          </mxGeometry>
        </mxCell>
        <mxCell id="N-qbP-aM9RmU7g5ffJJw-36" value="一致性保证模块" style="rounded=0;whiteSpace=wrap;html=1;fillColor=#66ff66;strokeColor=#36393d;" vertex="1" parent="1">
          <mxGeometry x="281" y="2895" width="159" height="20" as="geometry" />
        </mxCell>
        <mxCell id="N-qbP-aM9RmU7g5ffJJw-82" style="edgeStyle=orthogonalEdgeStyle;rounded=0;orthogonalLoop=1;jettySize=auto;html=1;exitX=1;exitY=0.5;exitDx=0;exitDy=0;" edge="1" parent="1" source="N-qbP-aM9RmU7g5ffJJw-38" target="N-qbP-aM9RmU7g5ffJJw-64">
          <mxGeometry relative="1" as="geometry">
            <Array as="points">
              <mxPoint x="610" y="2885" />
              <mxPoint x="610" y="3180" />
            </Array>
          </mxGeometry>
        </mxCell>
        <mxCell id="N-qbP-aM9RmU7g5ffJJw-38" value="" style="rounded=0;whiteSpace=wrap;html=1;" vertex="1" parent="1">
          <mxGeometry x="454" y="2850" width="126" height="70" as="geometry" />
        </mxCell>
        <mxCell id="N-qbP-aM9RmU7g5ffJJw-39" value="缓存" style="rounded=0;whiteSpace=wrap;html=1;fillColor=#66ff66;strokeColor=#36393d;" vertex="1" parent="1">
          <mxGeometry x="280" y="2980" width="60" height="70" as="geometry" />
        </mxCell>
        <mxCell id="N-qbP-aM9RmU7g5ffJJw-40" value="" style="endArrow=classic;startArrow=classic;html=1;rounded=0;exitX=0.469;exitY=0.066;exitDx=0;exitDy=0;entryX=0.25;entryY=1;entryDx=0;entryDy=0;exitPerimeter=0;" edge="1" parent="1" source="N-qbP-aM9RmU7g5ffJJw-34" target="N-qbP-aM9RmU7g5ffJJw-31">
          <mxGeometry width="50" height="50" relative="1" as="geometry">
            <mxPoint x="290" y="2880" as="sourcePoint" />
            <mxPoint x="340" y="2820" as="targetPoint" />
          </mxGeometry>
        </mxCell>
        <mxCell id="N-qbP-aM9RmU7g5ffJJw-42" value="" style="endArrow=classic;html=1;rounded=0;entryX=1;entryY=0.5;entryDx=0;entryDy=0;exitX=-0.019;exitY=0.718;exitDx=0;exitDy=0;exitPerimeter=0;" edge="1" parent="1" source="N-qbP-aM9RmU7g5ffJJw-28" target="N-qbP-aM9RmU7g5ffJJw-29">
          <mxGeometry width="50" height="50" relative="1" as="geometry">
            <mxPoint x="540" y="3020" as="sourcePoint" />
            <mxPoint x="590" y="2960" as="targetPoint" />
          </mxGeometry>
        </mxCell>
        <mxCell id="N-qbP-aM9RmU7g5ffJJw-43" value="" style="endArrow=classic;startArrow=classic;html=1;rounded=0;" edge="1" parent="1" source="N-qbP-aM9RmU7g5ffJJw-28">
          <mxGeometry width="50" height="50" relative="1" as="geometry">
            <mxPoint x="474" y="2831" as="sourcePoint" />
            <mxPoint x="560" y="3080" as="targetPoint" />
          </mxGeometry>
        </mxCell>
        <mxCell id="N-qbP-aM9RmU7g5ffJJw-44" value="" style="endArrow=classic;startArrow=classic;html=1;rounded=0;" edge="1" parent="1">
          <mxGeometry width="50" height="50" relative="1" as="geometry">
            <mxPoint x="313.66" y="3050" as="sourcePoint" />
            <mxPoint x="314" y="3080" as="targetPoint" />
          </mxGeometry>
        </mxCell>
        <mxCell id="N-qbP-aM9RmU7g5ffJJw-45" value="设备驱动" style="rounded=0;whiteSpace=wrap;html=1;" vertex="1" parent="1">
          <mxGeometry x="384.5" y="3250" width="91" height="30" as="geometry" />
        </mxCell>
        <mxCell id="N-qbP-aM9RmU7g5ffJJw-46" value="" style="endArrow=classic;startArrow=classic;html=1;rounded=0;exitX=1;exitY=0.5;exitDx=0;exitDy=0;" edge="1" parent="1" source="N-qbP-aM9RmU7g5ffJJw-30" target="N-qbP-aM9RmU7g5ffJJw-36">
          <mxGeometry width="50" height="50" relative="1" as="geometry">
            <mxPoint x="250" y="2910" as="sourcePoint" />
            <mxPoint x="300" y="2860" as="targetPoint" />
          </mxGeometry>
        </mxCell>
        <mxCell id="N-qbP-aM9RmU7g5ffJJw-47" value="" style="endArrow=none;html=1;rounded=0;exitX=0;exitY=0;exitDx=0;exitDy=0;strokeWidth=3;entryX=1;entryY=0;entryDx=0;entryDy=0;fillColor=#dae8fc;strokeColor=#6c8ebf;" edge="1" parent="1">
          <mxGeometry width="50" height="50" relative="1" as="geometry">
            <mxPoint x="90" y="3292.17" as="sourcePoint" />
            <mxPoint x="600" y="3292.17" as="targetPoint" />
          </mxGeometry>
        </mxCell>
        <mxCell id="N-qbP-aM9RmU7g5ffJJw-48" value="NAND设备" style="text;html=1;strokeColor=none;fillColor=none;align=center;verticalAlign=middle;whiteSpace=wrap;rounded=0;fontSize=14;labelBorderColor=none;" vertex="1" parent="1">
          <mxGeometry x="610" y="3311" width="70" height="30" as="geometry" />
        </mxCell>
        <mxCell id="N-qbP-aM9RmU7g5ffJJw-49" value="目标一" style="rounded=0;whiteSpace=wrap;html=1;fillColor=#66ff66;labelBorderColor=none;strokeColor=none;" vertex="1" parent="1">
          <mxGeometry x="22.5" y="2740" width="60" height="30" as="geometry" />
        </mxCell>
        <mxCell id="N-qbP-aM9RmU7g5ffJJw-50" value="目标三" style="rounded=0;whiteSpace=wrap;html=1;fillColor=#ffcccc;labelBorderColor=none;strokeColor=none;" vertex="1" parent="1">
          <mxGeometry x="22.5" y="2814" width="60" height="30" as="geometry" />
        </mxCell>
        <mxCell id="N-qbP-aM9RmU7g5ffJJw-51" value="目标二" style="rounded=0;whiteSpace=wrap;html=1;fillColor=#cce5ff;labelBorderColor=none;strokeColor=none;" vertex="1" parent="1">
          <mxGeometry x="22.5" y="2775" width="60" height="30" as="geometry" />
        </mxCell>
        <mxCell id="N-qbP-aM9RmU7g5ffJJw-58" value="" style="rounded=0;whiteSpace=wrap;html=1;" vertex="1" parent="1">
          <mxGeometry x="110" y="3130" width="340" height="100" as="geometry" />
        </mxCell>
        <mxCell id="N-qbP-aM9RmU7g5ffJJw-64" value="" style="rounded=0;whiteSpace=wrap;html=1;" vertex="1" parent="1">
          <mxGeometry x="475.5" y="3130" width="107" height="100" as="geometry" />
        </mxCell>
        <mxCell id="N-qbP-aM9RmU7g5ffJJw-56" value="segment" style="rounded=0;whiteSpace=wrap;html=1;" vertex="1" parent="1">
          <mxGeometry x="120" y="3190" width="50" height="30" as="geometry" />
        </mxCell>
        <mxCell id="N-qbP-aM9RmU7g5ffJJw-59" value="node" style="rounded=0;whiteSpace=wrap;html=1;" vertex="1" parent="1">
          <mxGeometry x="175" y="3190" width="40" height="30" as="geometry" />
        </mxCell>
        <mxCell id="N-qbP-aM9RmU7g5ffJJw-60" value="...." style="text;html=1;strokeColor=none;fillColor=none;align=center;verticalAlign=middle;whiteSpace=wrap;rounded=0;" vertex="1" parent="1">
          <mxGeometry x="780" y="3235.5" width="60" height="30" as="geometry" />
        </mxCell>
        <mxCell id="N-qbP-aM9RmU7g5ffJJw-62" value="data" style="rounded=0;whiteSpace=wrap;html=1;" vertex="1" parent="1">
          <mxGeometry x="220" y="3190" width="40" height="30" as="geometry" />
        </mxCell>
        <mxCell id="N-qbP-aM9RmU7g5ffJJw-63" value="super" style="rounded=0;whiteSpace=wrap;html=1;fillColor=#ffcc99;strokeColor=#36393d;" vertex="1" parent="1">
          <mxGeometry x="260" y="3150" width="52" height="30" as="geometry" />
        </mxCell>
        <mxCell id="N-qbP-aM9RmU7g5ffJJw-65" value="file" style="rounded=0;whiteSpace=wrap;html=1;" vertex="1" parent="1">
          <mxGeometry x="120" y="3150" width="40" height="30" as="geometry" />
        </mxCell>
        <mxCell id="N-qbP-aM9RmU7g5ffJJw-67" value="dir" style="rounded=0;whiteSpace=wrap;html=1;" vertex="1" parent="1">
          <mxGeometry x="165" y="3150" width="40" height="30" as="geometry" />
        </mxCell>
        <mxCell id="N-qbP-aM9RmU7g5ffJJw-68" value="namei" style="rounded=0;whiteSpace=wrap;html=1;" vertex="1" parent="1">
          <mxGeometry x="210" y="3150" width="40" height="30" as="geometry" />
        </mxCell>
        <mxCell id="N-qbP-aM9RmU7g5ffJJw-72" value="checkpoint" style="rounded=0;whiteSpace=wrap;html=1;" vertex="1" parent="1">
          <mxGeometry x="270" y="3190" width="60" height="30" as="geometry" />
        </mxCell>
        <mxCell id="N-qbP-aM9RmU7g5ffJJw-73" value="" style="rounded=0;whiteSpace=wrap;html=1;" vertex="1" parent="1">
          <mxGeometry x="345" y="3141" width="100" height="80" as="geometry" />
        </mxCell>
        <mxCell id="N-qbP-aM9RmU7g5ffJJw-74" value="..." style="text;html=1;strokeColor=none;fillColor=none;align=center;verticalAlign=middle;whiteSpace=wrap;rounded=0;" vertex="1" parent="1">
          <mxGeometry x="296" y="3145" width="60" height="30" as="geometry" />
        </mxCell>
        <mxCell id="N-qbP-aM9RmU7g5ffJJw-75" value="gc" style="text;html=1;strokeColor=none;fillColor=none;align=center;verticalAlign=middle;whiteSpace=wrap;rounded=0;" vertex="1" parent="1">
          <mxGeometry x="328.5" y="3136" width="60" height="30" as="geometry" />
        </mxCell>
        <mxCell id="N-qbP-aM9RmU7g5ffJJw-78" value="信息导出" style="rounded=0;whiteSpace=wrap;html=1;fillColor=#ffcccc;strokeColor=#36393d;" vertex="1" parent="1">
          <mxGeometry x="458" y="2870" width="52" height="40" as="geometry" />
        </mxCell>
        <mxCell id="N-qbP-aM9RmU7g5ffJJw-80" value="模块生成" style="rounded=0;whiteSpace=wrap;html=1;fillColor=#ffcccc;strokeColor=#36393d;" vertex="1" parent="1">
          <mxGeometry x="520" y="2870" width="57" height="40" as="geometry" />
        </mxCell>
        <mxCell id="N-qbP-aM9RmU7g5ffJJw-84" value="加载" style="rounded=0;whiteSpace=wrap;html=1;fillColor=#ffcccc;strokeColor=#36393d;" vertex="1" parent="1">
          <mxGeometry x="480.5" y="3198" width="49.5" height="22" as="geometry" />
        </mxCell>
        <mxCell id="N-qbP-aM9RmU7g5ffJJw-85" value="数据" style="shape=cylinder3;whiteSpace=wrap;html=1;boundedLbl=1;backgroundOutline=1;size=15;fillColor=#ffcccc;strokeColor=#36393d;" vertex="1" parent="1">
          <mxGeometry x="540" y="3150" width="39" height="70" as="geometry" />
        </mxCell>
        <mxCell id="N-qbP-aM9RmU7g5ffJJw-88" value="验证" style="rounded=0;whiteSpace=wrap;html=1;fillColor=#ffcccc;strokeColor=#36393d;" vertex="1" parent="1">
          <mxGeometry x="480" y="3160" width="51.38" height="28" as="geometry" />
        </mxCell>
        <mxCell id="N-qbP-aM9RmU7g5ffJJw-89" value="&lt;b&gt;&lt;font style=&quot;font-size: 14px;&quot;&gt;f2fs&lt;/font&gt;&lt;/b&gt;" style="text;html=1;strokeColor=none;fillColor=none;align=center;verticalAlign=middle;whiteSpace=wrap;rounded=0;" vertex="1" parent="1">
          <mxGeometry x="90" y="3125.5" width="75" height="30" as="geometry" />
        </mxCell>
        <mxCell id="N-qbP-aM9RmU7g5ffJJw-90" value="gc条件" style="rounded=0;whiteSpace=wrap;html=1;fillColor=#cce5ff;strokeColor=#36393d;" vertex="1" parent="1">
          <mxGeometry x="400" y="3190" width="40" height="26" as="geometry" />
        </mxCell>
        <mxCell id="N-qbP-aM9RmU7g5ffJJw-91" value="gc控制线程" style="rounded=0;whiteSpace=wrap;html=1;fillColor=#cce5ff;strokeColor=#36393d;" vertex="1" parent="1">
          <mxGeometry x="400" y="3147.5" width="40" height="35" as="geometry" />
        </mxCell>
        <mxCell id="N-qbP-aM9RmU7g5ffJJw-92" value="主gc流程" style="rounded=0;whiteSpace=wrap;html=1;fillColor=#ffcc99;strokeColor=#36393d;" vertex="1" parent="1">
          <mxGeometry x="354.5" y="3160" width="34" height="56" as="geometry" />
        </mxCell>
        <mxCell id="N-qbP-aM9RmU7g5ffJJw-93" value="改进" style="rounded=0;whiteSpace=wrap;html=1;fillColor=#ffcc99;labelBorderColor=none;strokeColor=none;" vertex="1" parent="1">
          <mxGeometry x="22.5" y="2853.25" width="60" height="30" as="geometry" />
        </mxCell>
        <mxCell id="N-qbP-aM9RmU7g5ffJJw-95" value="性能优化-fsck端" style="text;html=1;strokeColor=none;fillColor=none;align=center;verticalAlign=middle;whiteSpace=wrap;rounded=0;" vertex="1" parent="1">
          <mxGeometry x="450" y="2844" width="100" height="30" as="geometry" />
        </mxCell>
        <mxCell id="N-qbP-aM9RmU7g5ffJJw-96" value="性能优化-f2fs端" style="text;html=1;strokeColor=none;fillColor=none;align=center;verticalAlign=middle;whiteSpace=wrap;rounded=0;" vertex="1" parent="1">
          <mxGeometry x="473.5" y="3125.5" width="100" height="30" as="geometry" />
        </mxCell>
        <mxCell id="N-qbP-aM9RmU7g5ffJJw-97" style="rounded=0;orthogonalLoop=1;jettySize=auto;html=1;targetPerimeterSpacing=0;startArrow=classic;startFill=1;exitX=0.016;exitY=0.447;exitDx=0;exitDy=0;exitPerimeter=0;" edge="1" parent="1" source="N-qbP-aM9RmU7g5ffJJw-64" target="N-qbP-aM9RmU7g5ffJJw-58">
          <mxGeometry relative="1" as="geometry">
            <mxPoint x="460" y="3025" as="sourcePoint" />
            <Array as="points" />
            <mxPoint x="433" y="3025" as="targetPoint" />
          </mxGeometry>
        </mxCell>
      </root>
    </mxGraphModel>
  </diagram>
</mxfile>
